<?xml version="1.0" encoding="UTF-8" standalone="no"?>
<!-- Created with Inkscape (http://www.inkscape.org/) -->

<svg
   width="140mm"
   height="140mm"
   viewBox="0 0 140 140"
   version="1.1"
   id="svg5"
   inkscape:version="1.1 (c68e22c387, 2021-05-23)"
   sodipodi:docname="Logo_Florilegium_2.svg"
   inkscape:export-filename="C:\Users\bmwen\Logo_Florilegium_Quadrada.png"
   inkscape:export-xdpi="600"
   inkscape:export-ydpi="600"
   xmlns:inkscape="http://www.inkscape.org/namespaces/inkscape"
   xmlns:sodipodi="http://sodipodi.sourceforge.net/DTD/sodipodi-0.dtd"
   xmlns="http://www.w3.org/2000/svg"
   xmlns:svg="http://www.w3.org/2000/svg">
  <sodipodi:namedview
     id="namedview7"
     pagecolor="#ffffff"
     bordercolor="#666666"
     borderopacity="1.0"
     inkscape:pageshadow="2"
     inkscape:pageopacity="0.0"
     inkscape:pagecheckerboard="0"
     inkscape:document-units="mm"
     showgrid="false"
     showguides="true"
     inkscape:guide-bbox="true"
     inkscape:zoom="0.5"
     inkscape:cx="175"
     inkscape:cy="204"
     inkscape:window-width="1898"
     inkscape:window-height="1008"
     inkscape:window-x="0"
     inkscape:window-y="0"
     inkscape:window-maximized="0"
     inkscape:current-layer="layer1">
    <sodipodi:guide
       position="105.00134,210.06201"
       orientation="1,0"
       id="guide2421" />
    <sodipodi:guide
       position="210.12464,104.99452"
       orientation="0,-1"
       id="guide2445" />
  </sodipodi:namedview>
  <defs
     id="defs2">
    <rect
       x="2496"
       y="5320"
       width="1404"
       height="1388"
       id="rect114066" />
    <rect
       x="1080"
       y="5960"
       width="1600"
       height="1448"
       id="rect102764" />
    <linearGradient
       id="linearGradient32519"
       inkscape:swatch="solid">
      <stop
         style="stop-color:#000000;stop-opacity:1;"
         offset="0"
         id="stop32517" />
    </linearGradient>
    <linearGradient
       id="linearGradient30467"
       inkscape:swatch="gradient">
      <stop
         style="stop-color:#003835;stop-opacity:1;"
         offset="0"
         id="stop30463" />
      <stop
         style="stop-color:#003835;stop-opacity:0;"
         offset="1"
         id="stop30465" />
    </linearGradient>
    <rect
       x="1080"
       y="5960"
       width="1600"
       height="1448"
       id="rect102764-8" />
    <rect
       x="1080"
       y="5960"
       width="1600"
       height="1448"
       id="rect102764-8-4" />
    <rect
       x="2496"
       y="5320"
       width="1404"
       height="1388"
       id="rect114066-1" />
    <pattern
       id="EMFhbasepattern"
       patternUnits="userSpaceOnUse"
       width="6"
       height="6"
       x="0"
       y="0" />
  </defs>
  <g
     inkscape:label="Camada 1"
     inkscape:groupmode="layer"
     id="layer1">
    <path
       style="fill:#000000;stroke-width:0.117159"
       id="path74181"
       d="" />
    <path
       style="fill:#000000;stroke-width:0.117159"
       id="path194107"
       d="" />
    <path
       style="fill:#000000;stroke-width:0.117159"
       id="path194087"
       d="" />
    <g
       id="g86912-3-3"
       transform="translate(686.80105,1819.9144)" />
    <g
       id="g991"
       transform="translate(-34.999299,-35.004563)">
      <rect
         style="fill:#f6e7e0;fill-opacity:1;stroke:none;stroke-width:1.04584;stroke-linejoin:round;stroke-miterlimit:4;stroke-dasharray:none;stroke-opacity:1"
         id="rect53031-2-1"
         width="140"
         height="140"
         x="35.001499"
         y="35.00666" />
      <g
         id="g86732-0-3-0"
         transform="matrix(0.93727236,0,0,0.93727236,384.58072,-335.2348)"
         inkscape:export-filename="C:\Users\bmwen\Florilegium5.png"
         inkscape:export-xdpi="600"
         inkscape:export-ydpi="600">
        <path
           style="fill:none;stroke:#003835;stroke-width:5.765;stroke-linecap:butt;stroke-linejoin:round;stroke-miterlimit:4;stroke-dasharray:none;stroke-opacity:1"
           d="m -243.43207,501.43631 v -63.38932 l -54.8962,-31.69433 -54.8969,31.69473 v 63.39003 l 54.8946,31.69344 z"
           id="path83601-9-0-7" />
        <path
           style="fill:#003835;fill-opacity:1;stroke:none;stroke-width:2.10886;stroke-miterlimit:4;stroke-dasharray:none;stroke-opacity:1"
           d="m -308.76982,416.80962 c 0.44099,2.48291 2.34102,4.65585 2.9087,7.11141 0.26622,1.15146 -0.55744,2.37649 -0.15908,3.59315 0.35608,1.08737 1.34731,1.8176 1.7506,2.84457 0.1765,0.44952 0.0639,1.09457 0.0639,1.572 -0.47513,0 -1.21392,0.13924 -1.64607,-0.0769 -1.23509,-0.61779 -1.86533,-2.24017 -3.29217,-2.6334 -0.4392,-0.12105 -0.91985,0.0934 -1.34678,0.19133 -0.94274,0.21611 -2.3313,0.70299 -3.29213,0.5678 -0.57742,-0.0811 -1.20329,-0.54107 -1.72091,-0.80001 -1.38383,-0.69219 -2.85367,-1.68622 -4.33965,-2.11448 v 20.28626 c 2.13513,-0.3808 3.95695,-2.19302 6.06056,-2.72112 0.47586,-0.11947 1.09267,0.11025 1.57123,0.17597 1.07684,0.14801 2.22653,0.28985 3.29215,0.008 0.81382,-0.21476 1.62169,-0.52085 2.39429,-0.85314 0.33551,-0.14433 0.82925,-0.46157 1.19715,-0.46151 0.29943,8e-5 0.68529,0.36209 0.85274,0.58944 0.41219,0.55977 0.0767,1.9337 0.0481,2.58794 -0.0967,2.20934 -0.0778,4.45259 -0.0778,6.66228 -2.33712,0 -4.69888,-0.0444 -7.03322,-0.14679 -0.97941,-0.0429 -2.02363,0.12906 -2.99285,-0.0188 -1.1631,-0.17749 -2.16421,-1.10924 -3.36696,-1.29861 -1.04048,-0.16387 -2.23409,0.47279 -3.21732,0.21774 -1.82107,-0.47234 -3.66334,-1.64848 -5.38714,-2.411 -0.60181,-0.26626 -1.21832,-0.64668 -1.87054,-0.75904 l -0.22445,21.48397 c 1.69468,-0.69557 3.3433,-1.51548 5.01302,-2.26862 0.73287,-0.3305 1.60164,-0.92973 2.39428,-1.06469 0.3816,-0.0648 0.74926,0.31955 1.0475,0.5118 0.60525,0.39 1.34537,0.83915 2.09501,0.79333 1.46664,-0.0896 2.46258,-1.46944 3.81588,-1.69784 0.94979,-0.16033 1.96675,0.0534 2.91805,0.058 2.42189,0.0117 4.83927,0.0749 7.25767,0.0749 0,5.44361 -0.0747,10.875 -0.0747,16.31883 0,4.16197 0.10998,8.34731 -0.0719,12.50113 -0.10107,2.31084 -0.002,4.64861 -0.002,6.9617 0,0.9402 0.13327,1.9912 -0.011,2.91942 -0.0682,0.43868 -0.5203,0.74558 -0.80904,1.048 -0.50362,0.527 -1.05033,1.16628 -1.28123,1.87144 -0.32279,0.98585 0.0541,2.24944 0.29613,3.21885 0.0872,0.34958 0.38018,0.95292 0.27803,1.30399 -0.13474,0.46413 -0.5943,0.923 -0.86521,1.316 -0.89024,1.29203 -2.28364,2.73302 -2.85603,4.19198 -0.39528,1.00759 -0.0638,2.73529 -0.0638,3.81773 h 22.52124 c 0,-1.09366 0.32398,-2.79516 -0.063,-3.81773 -0.56632,-1.49562 -2.01554,-2.93514 -2.90487,-4.26683 -0.24826,-0.37205 -0.64054,-0.77103 -0.78181,-1.19772 -0.13355,-0.40274 0.16185,-1.02329 0.26106,-1.42228 0.23486,-0.9447 0.5899,-2.18134 0.27766,-3.14399 -0.24226,-0.74707 -0.82685,-1.38187 -1.34663,-1.94629 -0.24841,-0.26948 -0.68351,-0.59737 -0.74358,-0.97389 -0.18503,-1.16178 -0.0111,-2.4905 -0.0111,-3.66725 0,-2.7173 0.0654,-5.44361 -8.8e-4,-8.15941 -0.21893,-8.94318 -0.14852,-17.92662 -0.14852,-26.87368 2.41995,0 4.8351,-0.0632 7.25767,-0.0749 0.95128,-0.004 1.96825,-0.21829 2.91804,-0.058 1.35149,0.22811 2.35919,1.60885 3.81589,1.69784 0.78426,0.0479 1.53024,-0.44091 2.16982,-0.83166 0.28028,-0.1712 0.62078,-0.52535 0.97267,-0.48006 0.76617,0.0988 1.68998,0.74843 2.39429,1.07106 1.66432,0.7625 3.32304,1.56579 5.01303,2.26884 l -0.22447,-21.48397 c -0.67249,0.11955 -1.32747,0.51726 -1.94536,0.8003 -1.67951,0.76937 -3.52648,1.90869 -5.31231,2.36974 -0.97866,0.25265 -2.17947,-0.38118 -3.21731,-0.21774 -1.20277,0.18937 -2.20387,1.12112 -3.36697,1.29861 -0.84884,0.12949 -1.76115,-0.0188 -2.61874,0.0188 -2.45819,0.10766 -4.94638,0.14679 -7.40732,0.14679 0,-2.17212 0.0669,-4.41948 -0.0815,-6.58741 -0.0448,-0.65493 -0.35856,-2.10565 0.0517,-2.66281 0.15406,-0.20916 0.53588,-0.58322 0.80965,-0.60267 0.32329,-0.0229 0.79273,0.28677 1.0906,0.40594 0.83651,0.33475 1.67084,0.69153 2.54393,0.92194 1.08872,0.2873 2.26753,0.13618 3.36695,-0.0183 0.44123,-0.062 0.97807,-0.25767 1.42162,-0.18273 0.49336,0.0833 0.96789,0.41171 1.42159,0.60985 1.5438,0.67394 3.08812,1.68293 4.71375,2.12775 v -20.28628 c -1.42295,0.59274 -2.81081,1.35014 -4.18999,2.03965 -0.56027,0.28012 -1.24624,0.78704 -1.87053,0.87484 -0.959,0.13496 -2.35112,-0.35213 -3.29215,-0.56778 -0.427,-0.0979 -0.90757,-0.31238 -1.34678,-0.19133 -1.41473,0.38992 -2.03118,1.99284 -3.22398,2.63337 -0.4303,0.2311 -1.23425,0.0769 -1.71423,0.0769 0,-0.47264 -0.11777,-1.1313 0.0702,-1.572 0.43487,-1.01992 1.38825,-1.75718 1.74432,-2.84456 0.39857,-1.21717 -0.43254,-2.46578 -0.14867,-3.61454 0.60193,-2.43629 2.4593,-4.61856 2.89829,-7.09002 z"
           id="path7380-6-4-6-7" />
      </g>
    </g>
  </g>
</svg>
